HIERARCHY
ROOT root
{
	OFFSET	0	13.1	24.9
	CHANNELS 6  Xposition Yposition Zposition Xrotation Yrotation Zrotation
	JOINT spine_1
	{
		OFFSET	0	9.99999	0
		CHANNELS 3  Xrotation Yrotation Zrotation
		JOINT spine_2
		{
			OFFSET	0	112	-10
			CHANNELS 3  Xrotation Yrotation Zrotation
			JOINT spine_3
			{
				OFFSET	0	206.5	19.3
				CHANNELS 3  Xrotation Yrotation Zrotation
				JOINT spine_4
				{
					OFFSET	0	110.4	14.6
					CHANNELS 3  Xrotation Yrotation Zrotation
					JOINT neck_1
					{
						OFFSET	0	71.8	-50.3
						CHANNELS 3  Xrotation Yrotation Zrotation
						JOINT neck_2
						{
							OFFSET	0	86.2	-25.8
							CHANNELS 3  Xrotation Yrotation Zrotation
							JOINT head_ee
							{
								OFFSET	0	179.8	-8.7
								CHANNELS 3  Xrotation Yrotation Zrotation
								End Site
								{
									OFFSET	1	0	0
								}
							}
						}
					}
					JOINT left_clavicle
					{
						OFFSET	-43.2	22.4	-70.8
						CHANNELS 3  Xrotation Yrotation Zrotation
						JOINT left_shoulder
						{
							OFFSET	-93.9	-5.79999	48.7
							CHANNELS 3  Xrotation Yrotation Zrotation
							JOINT left_elbow
							{
								OFFSET	-291.4	-30.8	15.2
								CHANNELS 3  Xrotation Yrotation Zrotation
								JOINT left_lowarm_twist
								{
									OFFSET	-110.7	-3.89999	13.6
									CHANNELS 3  Xrotation Yrotation Zrotation
									JOINT left_hand
									{
										OFFSET	-110.7	-3.89999	13.6
										CHANNELS 3  Xrotation Yrotation Zrotation
										JOINT left_ee
										{
											OFFSET	-80.8	-5.10001	12.1
											CHANNELS 3  Xrotation Yrotation Zrotation
											End Site
											{
												OFFSET	1	0	0
											}
										}
									}
								}
							}
						}
					}
					JOINT right_clavicle
					{
						OFFSET	43.2	22.4	-70.8
						CHANNELS 3  Xrotation Yrotation Zrotation
						JOINT right_shoulder
						{
							OFFSET	93.9	-5.79999	48.7
							CHANNELS 3  Xrotation Yrotation Zrotation
							JOINT right_elbow
							{
								OFFSET	291.4	-30.8	15.2
								CHANNELS 3  Xrotation Yrotation Zrotation
								JOINT right_lowarm_twist
								{
									OFFSET	110.7	-3.89999	13.6
									CHANNELS 3  Xrotation Yrotation Zrotation
									JOINT right_hand
									{
										OFFSET	110.7	-3.89999	13.6
										CHANNELS 3  Xrotation Yrotation Zrotation
										JOINT right_ee
										{
											OFFSET	80.8	-5.10001	12.1
											CHANNELS 3  Xrotation Yrotation Zrotation
											End Site
											{
												OFFSET	1	0	0
											}
										}
									}
								}
							}
						}
					}
				}
			}
		}
	}
	JOINT left_hip
	{
		OFFSET	-82.8	-127.5	0.300001
		CHANNELS 3  Xrotation Yrotation Zrotation
		JOINT left_knee
		{
			OFFSET	-28.2	-396.7	2.2
			CHANNELS 3  Xrotation Yrotation Zrotation
			JOINT left_ankle
			{
				OFFSET	-11.7	-411.3	35.4
				CHANNELS 3  Xrotation Yrotation Zrotation
				JOINT left_toes
				{
					OFFSET	0	-60	-88.6
					CHANNELS 3  Xrotation Yrotation Zrotation
					JOINT left_foot_ee
					{
						OFFSET	-22.5	-16.5	-42.2
						CHANNELS 3  Xrotation Yrotation Zrotation
						End Site
						{
							OFFSET	1	0	0
						}
					}
				}
			}
		}
	}
	JOINT right_hip
	{
		OFFSET	82.8	-127.5	0.300001
		CHANNELS 3  Xrotation Yrotation Zrotation
		JOINT right_knee
		{
			OFFSET	28.2	-396.7	2.2
			CHANNELS 3  Xrotation Yrotation Zrotation
			JOINT right_ankle
			{
				OFFSET	11.7	-411.3	35.4
				CHANNELS 3  Xrotation Yrotation Zrotation
				JOINT right_toes
				{
					OFFSET	0	-60	-88.6
					CHANNELS 3  Xrotation Yrotation Zrotation
					JOINT right_foot_ee
					{
						OFFSET	22.5	-16.5	-42.2
						CHANNELS 3  Xrotation Yrotation Zrotation
						End Site
						{
							OFFSET	1	0	0
						}
					}
				}
			}
		}
	}
}
MOTION
Frames: 7
Frame Time: 0.02
1189.44 689.65 -1428.11 -4.58022 73.6556 0.169565 0.376232 -0.0485057 1.54211 0.377543 -0.146524 1.5359 0.373969 -0.456568 1.47378 0.371005 -0.21811 1.52738 -22.8946 15.282 2.87303 -24.4175 28.1487 10.3208 -0.0 0.0 -0.0 -7.89976 17.2842 -10.3893 -40.1838 -37.0949 79.5273 149.989 -85.9707 147.91 -81.6283 -8.02803 5.25485 3.0346 -10.0807 16.4115 -0.0 0.0 -0.0 8.82288 -12.5106 -16.4533 -19.428 -10.8801 -56.7292 0.444409 12.4157 -0.04834 85.209 4.45157 8.87572 -7.53662 -26.9188 33.2877 0.0 0.0 0.0 -12.5275 1.2205 8.26539 -1.27603 0.0504339 0.189326 40.3838 12.9938 -4.93946 -18.1408 0.0 0.0 -0.0 0.0 -0.0 27.3587 8.9508 -1.30712 4.13103 0.192026 0.604606 8.5271 2.09885 1.23716 -32.8601 0.0 0.0 0.0 0.0 0.0 
1173.87 687.847 -1428.86 -7.4387 73.2976 2.76951 0.651382 -0.0725918 1.34363 0.652373 -0.157935 1.33629 0.648877 -0.4209 1.27807 0.646661 -0.213788 1.3285 -23.9758 15.0582 2.91632 -25.5578 27.7361 10.5508 -0.0 0.0 -0.0 -7.31016 19.0072 -8.87731 -40.5862 -37.1353 78.2079 141.675 -86.7483 139.612 -83.3562 -8.24584 5.22199 3.19105 -10.3745 17.3779 -0.0 0.0 -0.0 8.89607 -12.944 -16.5401 -18.9498 -10.2431 -56.4921 0.470245 13.1131 -0.0540483 85.4775 4.48378 8.88791 -7.72376 -27.374 34.1046 0.0 0.0 0.0 -13.2097 2.81836 8.72514 -0.682978 0.0275193 0.101198 42.4621 14.3426 -5.13684 -19.7912 0.0 0.0 -0.0 0.0 -0.0 27.6936 9.15437 -1.12976 3.64905 0.167376 0.534784 8.67812 3.19178 1.26291 -32.6723 0.0 0.0 0.0 0.0 0.0 
1154.85 683.023 -1432.29 -8.29878 72.8497 3.38634 0.813969 -0.056493 1.21675 0.814783 -0.133797 1.21069 0.812085 -0.36891 1.16085 0.81025 -0.180959 1.20454 -23.9463 15.526 3.1449 -25.6252 28.5347 11.03 -0.0 0.0 -0.0 -7.29938 19.1929 -8.80039 -39.2049 -37.3795 77.7858 76.3565 -87.9237 74.3473 -84.4281 -8.38036 5.19828 3.3948 -10.8379 18.6042 -0.0 0.0 -0.0 8.836 -13.9541 -16.3314 -18.8236 -8.92512 -56.1848 0.493338 13.7332 -0.0594092 85.2945 4.46183 8.87962 -8.32705 -30.1924 35.0797 0.0 0.0 0.0 -15.2121 3.73552 9.44195 1.71604 -0.0744595 -0.252789 41.0386 13.6398 -5.005 -19.5234 0.0 0.0 -0.0 0.0 -0.0 27.2725 10.5795 -0.197285 3.15249 0.142598 0.462639 7.68902 10.9952 1.16494 -32.4173 0.0 0.0 0.0 0.0 0.0 
1132.2 681.118 -1438.23 -7.79461 71.6916 2.69469 1.18303 0.0436168 1.19209 1.18382 -0.032322 1.19245 1.18324 -0.258269 1.1646 1.18136 -0.0711145 1.19077 -23.8781 15.7081 2.8339 -25.622 29.0156 10.8443 -0.0 0.0 -0.0 -7.76574 19.4437 -9.44598 -38.3096 -38.6932 79.1819 29.9079 -85.9582 27.9518 -84.7543 -8.4212 5.19055 3.39002 -11.3132 18.3468 -0.0 0.0 -0.0 8.8837 -14.4419 -16.3622 -18.3062 -8.95404 -56.6487 0.499259 13.8917 -0.060823 84.8296 4.40613 8.85824 -8.8414 -30.3889 38.4889 0.0 0.0 0.0 -16.1372 2.7391 9.14243 -0.191274 0.00782866 0.0283089 40.9652 12.3572 -4.98274 -19.5477 0.0 0.0 -0.0 0.0 -0.0 24.8845 11.5269 0.312103 4.88428 0.231725 0.713314 5.02228 16.1569 0.795965 -32.3798 0.0 0.0 0.0 0.0 0.0 
1114.34 684.754 -1443.35 -8.04267 72.8588 2.62338 1.48769 -0.0235962 1.12222 1.48839 -0.0949534 1.11844 1.48655 -0.299984 1.08164 1.48494 -0.125406 1.11544 -23.8769 16.1596 2.84307 -25.7415 29.8773 11.1323 -0.0 0.0 -0.0 -7.97008 19.2242 -9.84155 -36.6309 -37.841 78.6837 25.3221 -85.2909 23.3792 -85.0058 -8.45265 5.18444 3.41108 -11.7533 18.2879 -0.0 0.0 -0.0 8.92822 -14.5804 -16.424 -18.115 -8.25534 -56.7699 0.516796 14.3598 -0.0651028 84.6099 4.37987 8.84799 -9.20208 -30.57 40.9425 0.0 0.0 0.0 -16.1488 3.3239 9.68774 -2.11476 0.0812787 0.314349 40.3501 14.7632 -4.96038 -19.2091 0.0 0.0 -0.0 0.0 -0.0 23.1462 11.3967 1.20218 5.7705 0.280262 0.840543 6.51722 19.3459 1.05566 -32.3124 0.0 0.0 0.0 0.0 0.0 
1088.72 686.591 -1451.6 -7.01715 72.1617 1.3376 1.69469 -0.0134656 0.943023 1.69518 -0.0734426 0.940255 1.69397 -0.24261 0.911383 1.69282 -0.0956357 0.938258 -24.331 16.3567 1.96782 -26.3823 30.6341 10.6311 -0.0 0.0 -0.0 -8.00046 18.4454 -10.1575 -33.1037 -36.3915 79.2464 17.1686 -83.1937 15.2655 -84.46 -8.38436 5.19753 3.41842 -11.946 18.2482 -0.0 0.0 -0.0 9.00193 -14.6983 -16.538 -17.6141 -6.96828 -56.5565 0.528097 14.6604 -0.0679343 84.914 4.41623 8.86216 -9.35244 -30.5721 42.1055 0.0 0.0 0.0 -16.936 2.68485 9.77563 -5.50096 0.187085 0.823182 40.0137 17.3938 -4.97466 -19.2215 0.0 0.0 -0.0 0.0 -0.0 22.2279 11.7422 1.38867 3.76543 0.173274 0.551661 6.48115 24.2862 1.10335 -32.1673 0.0 0.0 0.0 0.0 0.0 
1069.04 685.379 -1452.86 -7.24889 72.5765 1.73456 1.89947 0.0901501 0.792433 1.89981 0.0395444 0.796564 1.90036 -0.102591 0.790919 1.89949 0.0236031 0.797195 -27.502 16.4304 2.86795 -29.9094 30.4064 12.5332 -0.0 0.0 -0.0 -7.66619 18.9218 -9.46515 -30.1263 -34.2417 81.8126 10.4455 -79.0029 8.61872 -83.969 -8.32281 5.20874 3.77033 -14.0898 19.6989 -0.0 0.0 -0.0 9.32877 -13.78 -17.2117 -18.2541 -3.26106 -57.0116 0.446682 12.4772 -0.0488297 85.2492 4.45639 8.87756 -9.51183 -30.8133 43.0103 0.0 0.0 0.0 -16.3143 2.44622 9.64602 -9.17217 0.267603 1.38071 40.8903 16.7686 -5.04171 -17.5123 0.0 0.0 -0.0 0.0 -0.0 21.4071 11.3269 1.73238 2.24656 0.0990103 0.330486 9.95682 22.804 1.64568 -33.8671 0.0 0.0 0.0 0.0 0.0 
